<svg xmlns="http://www.w3.org/2000/svg" viewBox="-3.5 2.221 100.93 32.279" fill-rule="nonzero" clip-rule="evenodd" stroke-linejoin="round" stroke-miterlimit="2" role="img" aria-label="Socket"><defs><linearGradient id="socket-brand-gradient" x1="0" y1="0" x2="1" y2="0"><stop offset="0%" stop-color="#ff00aa"/><stop offset="100%" stop-color="#8c50ff"/></linearGradient></defs><path data-socket-layer="shield" fill="url(#socket-brand-gradient)" d="M18.44 8.84c.46.16.76.6.76 1.1-.04 3.58.23 8.63-.38 10.88-1.04 4.5-4.42 8.4-8.8 10.1a1.2 1.2 0 0 1-.84 0C4.52 29.15.92 24.73.18 19.8c-.06-.31-.1-.67-.13-.98-.04-.2-.05-1.14-.05-5.17V9.91a1.15 1.15 0 0 1 .76-1.07c2.8-1.02 5.38-1.93 8.2-2.96l.24-.1q.38-.12.77 0l2.24.81z"/><path data-socket-layer="bolt" fill="#ffffff" d="M9.89 9.54c.19-.32.67-.18.67.19v5.85c0 .25.2.45.46.45h2.73c.29 0 .46.31.31.56l-4.9 8.04c-.2.31-.68.17-.68-.2V18.6a.46.46 0 0 0-.46-.46H5.3a.37.37 0 0 1-.31-.55z"/><g data-socket-layer="text"><path fill="#1a1338" d="M26.69 23.74a.2.2 0 0 1 .03-.24l2.21-1.85a.2.2 0 0 1 .28.04c.8 1.08 2.1 1.71 3.33 1.71 1.28 0 2.13-.63 2.13-1.54 0-.9-.65-1.53-2.22-2.07l-1.34-.47c-2.56-.9-3.93-2.38-3.93-4.55 0-3 2.29-4.78 5.39-4.78 1.9 0 3.56.64 4.9 2.07a.2.2 0 0 1 0 .25l-1.9 1.95a.2.2 0 0 1-.27 0c-.74-.82-1.68-1.22-2.71-1.22-1.1 0-2.13.47-2.13 1.41 0 .97.78 1.4 2.46 2l1.28.47c2.34.85 3.8 2.33 3.8 4.73-.03 2.85-2.3 4.8-5.6 4.8-2.46 0-4.55-1.04-5.71-2.71"/><path fill="#1a1338" d="M50.67 20.58c0 3.27-2.65 5.85-5.9 5.85s-5.9-2.58-5.9-5.85 2.65-5.86 5.9-5.86 5.9 2.58 5.9 5.86m-8.7 0c0 1.72 1.19 2.98 2.8 2.98 1.62 0 2.78-1.26 2.78-2.98s-1.16-2.99-2.78-2.99-2.8 1.26-2.8 2.99"/><path fill="#1a1338" d="M62.6 23.12a.2.2 0 0 1 .07.24c-1 1.84-2.96 3.07-5.23 3.07-3.32 0-5.94-2.47-5.94-5.85s2.62-5.86 5.94-5.86c2.27 0 4.24 1.23 5.23 3.08a.2.2 0 0 1-.07.24l-2.34 1.25a.2.2 0 0 1-.26-.08c-.48-.94-1.4-1.62-2.56-1.62-1.62 0-2.85 1.26-2.85 2.99s1.23 2.98 2.85 2.98c1.16 0 2.08-.68 2.56-1.62a.2.2 0 0 1 .26-.08z"/><path fill="#1a1338" d="M64 26.18a.2.2 0 0 1-.18-.18V9.54q.01-.16.18-.18h2.71q.16.01.18.18v9.07c0 .17.21.25.32.12l3.26-3.7a.2.2 0 0 1 .14-.06h3.21c.16 0 .24.19.14.3l-4.07 4.63a.2.2 0 0 0 0 .24l5.1 5.74a.18.18 0 0 1-.14.3h-3.3a.2.2 0 0 1-.14-.06l-4.2-4.74a.18.18 0 0 0-.32.12V26q-.01.17-.18.18z"/><path fill="#1a1338" d="M73.97 20.58c0-3.32 2.49-5.86 5.9-5.86 2.93 0 5.51 1.89 5.51 5.52 0 .24 0 .5-.03.89a.2.2 0 0 1-.18.16h-8.02a.17.17 0 0 0-.17.2c.27 1.38 1.54 2.14 2.95 2.14 1.3 0 2.26-.57 2.78-1.26a.2.2 0 0 1 .27-.04l2 1.48a.2.2 0 0 1 .03.25c-1.05 1.42-2.82 2.37-5.1 2.37-3.34 0-5.94-2.31-5.94-5.85m5.8-3.32c-1.08 0-2.28.52-2.65 1.73-.04.11.05.22.17.22h4.8c.11 0 .2-.1.17-.22-.35-1.17-1.4-1.73-2.48-1.73"/><path fill="#1a1338" d="M93.93 25.94q0 .13-.12.17c-.47.13-1.05.2-1.83.2-2.37 0-4.28-1.32-4.28-4.05v-4.42q-.02-.16-.18-.18h-1.9a.2.2 0 0 1-.19-.18v-2.33q.02-.17.19-.18h1.9q.17-.02.18-.18v-2.75q.01-.17.18-.19h2.7q.18.01.2.19v2.75q.01.16.17.18h2.8q.16.02.18.18v2.33q-.02.16-.18.18h-2.8q-.17.01-.18.18v3.81c0 1.37.59 1.9 1.9 1.9q.58 0 1.01-.11c.13-.04.25.05.25.18z"/></g></svg>
